<svg width="1920" height="1080" viewBox="0 0 1920 1080" fill="none" xmlns="http://www.w3.org/2000/svg">
<g clip-path="url(#clip0_7_35)">
<rect width="1920" height="1080" fill="#000C16"/>
<rect width="1920" height="1080" fill="url(#paint0_radial_7_35)"/>
<g clip-path="url(#clip1_7_35)">
<circle cx="960" cy="540" r="256" fill="url(#paint1_linear_7_35)"/>
<path d="M856.898 717V362.746H980.749C1005.43 362.746 1025.78 367.012 1041.81 375.546C1057.84 383.964 1069.77 395.323 1077.62 409.622C1085.46 423.806 1089.38 439.547 1089.38 456.844C1089.38 472.066 1086.67 484.636 1081.25 494.553C1075.94 504.47 1068.91 512.312 1060.14 518.078C1051.5 523.844 1042.1 528.11 1031.95 530.878V534.338C1042.79 535.03 1053.69 538.835 1064.64 545.754C1075.6 552.673 1084.76 562.59 1092.14 575.506C1099.53 588.421 1103.22 604.22 1103.22 622.901C1103.22 640.66 1099.18 656.631 1091.11 670.815C1083.03 684.999 1070.29 696.243 1052.88 704.546C1035.47 712.849 1012.81 717 984.9 717H856.898ZM899.796 678.945H984.9C1012.92 678.945 1032.81 673.525 1044.58 662.686C1056.45 651.73 1062.39 638.469 1062.39 622.901C1062.39 610.908 1059.34 599.838 1053.23 589.69C1047.11 579.427 1038.41 571.239 1027.11 565.127C1015.81 558.9 1002.43 555.787 986.976 555.787H899.796V678.945ZM899.796 518.424H979.365C992.28 518.424 1003.93 515.887 1014.31 510.813C1024.8 505.739 1033.1 498.589 1039.21 489.364C1045.44 480.139 1048.56 469.299 1048.56 456.844C1048.56 441.277 1043.14 428.073 1032.3 417.233C1021.46 406.278 1004.27 400.8 980.749 400.8H899.796V518.424Z" fill="white"/>
</g>
</g>
<defs>
<radialGradient id="paint0_radial_7_35" cx="0" cy="0" r="1" gradientUnits="userSpaceOnUse" gradientTransform="translate(960 540) rotate(90) scale(540 960)">
<stop stop-color="#0060B9"/>
<stop offset="1" stop-color="#000C16" stop-opacity="0"/>
</radialGradient>
<linearGradient id="paint1_linear_7_35" x1="1216" y1="540" x2="704" y2="540" gradientUnits="userSpaceOnUse">
<stop stop-color="#0060B9"/>
<stop offset="1" stop-color="#000C16"/>
</linearGradient>
<clipPath id="clip0_7_35">
<rect width="1920" height="1080" fill="white"/>
</clipPath>
<clipPath id="clip1_7_35">
<rect width="512" height="512" fill="white" transform="translate(704 284)"/>
</clipPath>
</defs>
</svg>
